<svg width="130" height="48" viewBox="0 0 130 48" fill="none" xmlns="http://www.w3.org/2000/svg">
<path d="M61.384 38V12.8H77.872V17.048H65.992V33.752H78.016V38H61.384ZM63.544 27.2V23.024H76.036V27.2H63.544ZM84.28 38V17.336C84.28 16.184 84.532 15.164 85.036 14.276C85.54 13.364 86.236 12.656 87.124 12.152C88.012 11.624 89.044 11.36 90.22 11.36C91.036 11.36 91.792 11.504 92.488 11.792C93.184 12.056 93.772 12.428 94.252 12.908L92.884 16.256C92.572 15.992 92.236 15.788 91.876 15.644C91.54 15.5 91.216 15.428 90.904 15.428C90.424 15.428 90.016 15.512 89.68 15.68C89.368 15.824 89.128 16.052 88.96 16.364C88.816 16.676 88.744 17.048 88.744 17.48V38H86.512C86.08 38 85.672 38 85.288 38C84.928 38 84.592 38 84.28 38ZM81.328 23.312V19.424H93.028V23.312H81.328ZM104.118 38.36C102.222 38.36 100.53 37.94 99.0417 37.1C97.5537 36.236 96.3777 35.06 95.5137 33.572C94.6497 32.084 94.2177 30.392 94.2177 28.496C94.2177 26.6 94.6497 24.908 95.5137 23.42C96.3777 21.932 97.5537 20.768 99.0417 19.928C100.53 19.064 102.222 18.632 104.118 18.632C105.99 18.632 107.67 19.064 109.158 19.928C110.646 20.768 111.81 21.932 112.65 23.42C113.514 24.908 113.946 26.6 113.946 28.496C113.946 30.392 113.514 32.084 112.65 33.572C111.81 35.06 110.646 36.236 109.158 37.1C107.67 37.94 105.99 38.36 104.118 38.36ZM104.118 34.436C105.15 34.436 106.062 34.172 106.854 33.644C107.67 33.116 108.306 32.408 108.762 31.52C109.242 30.632 109.47 29.624 109.446 28.496C109.47 27.344 109.242 26.324 108.762 25.436C108.306 24.548 107.67 23.852 106.854 23.348C106.062 22.82 105.15 22.556 104.118 22.556C103.086 22.556 102.15 22.82 101.31 23.348C100.494 23.852 99.8577 24.56 99.4017 25.472C98.9457 26.36 98.7177 27.368 98.7177 28.496C98.7177 29.624 98.9457 30.632 99.4017 31.52C99.8577 32.408 100.494 33.116 101.31 33.644C102.15 34.172 103.086 34.436 104.118 34.436ZM117.367 38V19.028H121.723L121.795 25.076L121.183 23.708C121.447 22.748 121.903 21.884 122.551 21.116C123.199 20.348 123.943 19.748 124.783 19.316C125.647 18.86 126.547 18.632 127.483 18.632C127.891 18.632 128.275 18.668 128.635 18.74C129.019 18.812 129.331 18.896 129.571 18.992L128.383 23.852C128.119 23.708 127.795 23.588 127.411 23.492C127.027 23.396 126.643 23.348 126.259 23.348C125.659 23.348 125.083 23.468 124.531 23.708C124.003 23.924 123.535 24.236 123.127 24.644C122.719 25.052 122.395 25.532 122.155 26.084C121.939 26.612 121.831 27.212 121.831 27.884V38H117.367Z" fill="#061C3D"/>
<path d="M24 46C36.1506 46 46 36.1506 46 24C46 11.8494 36.1506 2 24 2C11.8494 2 2 11.8494 2 24C2 36.1506 11.8494 46 24 46Z" fill="#CEE0FA" stroke="#CEE0FA" stroke-width="4" stroke-linecap="round" stroke-linejoin="round"/>
<path d="M24.097 11L14.821 24.494C14.261 25.306 13.981 25.712 14.001 26.05C14.0079 26.1952 14.0463 26.3372 14.1137 26.466C14.181 26.5949 14.2757 26.7075 14.391 26.796C14.661 27 15.151 27 16.139 27H24.097V37L33.373 23.506C33.933 22.694 34.213 22.288 34.193 21.95C34.1861 21.8048 34.1477 21.6628 34.0803 21.534C34.013 21.4051 33.9183 21.2925 33.803 21.204C33.533 21 33.043 21 32.055 21H24.097V11Z" fill="#0B63E5" stroke="#0B63E5" stroke-width="2" stroke-linecap="round" stroke-linejoin="round"/>
</svg>
